<svg xmlns="http://www.w3.org/2000/svg" viewBox="0 0 587.28 447.78"><defs><style>.cls-1{fill:#fff;}.cls-2{fill:#b3b3b3;}.cls-3{fill:#ccc;}.cls-4{fill:#e6e6e6;}.cls-5{fill:#46a079;}.cls-6{fill:#1a1a1a;}.cls-7{fill:#c7b299;}.cls-8{fill:#998675;}.cls-9{fill:#194f34;}.cls-10{fill:#4d4d4d;}.cls-11{fill:#333;}.cls-12{fill:#c1272d;}.cls-13{fill:#eaecef;}.cls-14{fill:#42210b;}.cls-15{fill:#fbb03b;}.cls-16{fill:#f7931e;}.cls-17{fill:#ffd556;}.cls-18{fill:#603813;}.cls-19{fill:#7baa31;}.cls-20{fill:#668929;}.cls-21{fill:#8cc63f;}.cls-22{fill:#754c24;}.cls-23{fill:#006837;}.cls-24{fill:#009245;}.cls-25{fill:#d6c4b2;}.cls-26{fill:#aa1a25;}</style></defs><g id="Layer_2" data-name="Layer 2"><g id="Layer_1-2" data-name="Layer 1"><path class="cls-1" d="M224.16,155.08a52.94,52.94,0,0,0-99.45-23.77h-.39a52.95,52.95,0,0,0-19.6,102.13,53,53,0,0,0,76.18,11.83,53.79,53.79,0,0,0,6,.34,52.93,52.93,0,0,0,37.28-90.52Z"/><path class="cls-2" d="M430.4,119.86A82.05,82.05,0,0,0,276.28,83h-.6a82.05,82.05,0,0,0-30.37,158.27,82,82,0,0,0,118.06,18.33,83.32,83.32,0,0,0,9.27.53A82,82,0,0,0,430.4,119.86Z"/><polygon class="cls-3" points="492.72 349.14 394.12 198.76 280.59 359.1 492.72 349.14"/><polygon class="cls-4" points="394.25 198.76 410.74 224.13 403.59 219.88 403.9 236.87 398.72 220.91 395.82 231.69 393.75 219.26 389.29 230.03 388.88 219.05 379.87 229.1 381.52 219.88 372.41 229.62 394.25 198.76"/><polygon class="cls-4" points="87.3 324.99 233.08 102.64 400.94 339.71 87.3 324.99"/><polygon class="cls-1" points="232.89 102.64 208.51 140.16 219.08 133.88 218.62 158.99 226.28 135.41 230.57 151.34 233.63 132.96 240.22 148.88 240.83 132.65 254.15 147.51 251.7 133.88 265.18 148.27 232.89 102.64"/><polygon class="cls-3" points="35.26 338.8 133.86 188.42 247.39 348.76 35.26 338.8"/><polygon class="cls-4" points="133.73 188.42 117.24 213.79 124.39 209.54 124.08 226.53 129.26 210.57 132.16 221.35 134.23 208.92 138.69 219.69 139.1 208.71 148.11 218.76 146.45 209.54 155.57 219.28 133.73 188.42"/><path class="cls-5" d="M582.37,330.5c-14.35-10.43-45.78-13.11-73-12-25.23,1-49.18,4.92-74,6-33.42,1.39-67.5.62-100.87-.62-68.24-2.53-136.06-8.2-204.76-7.5-32.88.33-67.19,2.37-94.19,10.79S-8.4,352,4.28,365.56c14.44,15.49,61,16.91,91.9,21.35,10.42,1.5,29,2.34,35.44,9.89,5,5.86,7.3,11.57,12.4,15.9,19.61,20.39,74.93,35.08,140.13,35.08,81.59,0,147.73-23,147.73-51.4a18.78,18.78,0,0,0-.92-5.74l0-.29c.54-9.38-19.56-30.25,4.6-36.56,4.53-1.18,9.92-1.48,15.14-1.67,40.88-1.5,84.16,1.92,121.52-5.68,4.37-.89,8.74-2,11.59-3.7C589.61,339.25,587.45,334.19,582.37,330.5Z"/><polygon class="cls-6" points="254.87 156.91 239.7 195.56 337.71 194.74 325.2 156.91 254.87 156.91"/><rect class="cls-7" x="227.33" y="311.61" width="125.51" height="41.37"/><rect class="cls-2" x="275.37" y="311.61" width="29.33" height="32.44"/><rect class="cls-1" x="275.21" y="344.18" width="29.73" height="3.96"/><rect class="cls-8" x="273.42" y="348" width="32.78" height="5.18"/><rect class="cls-1" x="282.26" y="316.82" width="15.51" height="15.51"/><rect class="cls-9" x="284.25" y="318.57" width="11.3" height="11.3"/><polyline class="cls-1" points="283.39 325.61 296.68 325.61 296.68 323.31 283.39 323.31"/><polyline class="cls-1" points="288.67 317.34 288.67 331.41 290.97 331.41 290.97 317.34"/><polygon class="cls-10" points="240.7 195.56 267.7 194.74 254.61 313.36 216.98 320.72 240.7 195.56"/><polygon class="cls-10" points="337.71 194.74 310.71 193.92 323.8 312.54 361.43 319.9 337.71 194.74"/><polygon class="cls-11" points="266.7 194.74 311.69 193.92 324.78 312.54 253.61 313.36 266.7 194.74"/><path class="cls-12" d="M325.2,156.91c0,19.42-70.33,19.42-70.33,0a35.17,35.17,0,0,1,70.33,0Z"/><polyline class="cls-13" points="322.51 120.25 343.11 140.84 345.43 138.53 324.83 117.93"/><rect class="cls-1" x="311.72" y="65.19" width="128.09" height="35.59" transform="translate(51.38 290.01) rotate(-45)"/><polyline class="cls-13" points="421.62 38.22 331.01 128.83 333.33 131.15 423.94 40.54"/><polyline class="cls-13" points="431.36 47.98 340.75 138.59 343.06 140.91 433.67 50.3"/><polyline class="cls-13" points="411.02 31.76 431.61 52.36 433.93 50.04 413.33 29.45"/><polyline class="cls-13" points="366.53 76.45 387.13 97.05 389.44 94.73 368.85 74.14"/><polyline class="cls-13" points="345.22 97.71 365.81 118.31 368.13 115.99 347.53 95.39"/><polyline class="cls-13" points="388.8 53.91 409.39 74.5 411.7 72.19 391.11 51.59"/><rect class="cls-14" x="268.1" y="80.49" width="166.36" height="9.09" transform="translate(42.76 273.3) rotate(-45)"/><rect class="cls-1" x="332.94" y="166.52" width="35.28" height="129.22" transform="translate(-61.46 312.03) rotate(-44.5)"/><polyline class="cls-13" points="395.35 277.75 304.74 185.55 302.41 187.85 393.02 280.04"/><polyline class="cls-13" points="385.59 287.31 294.98 195.12 292.64 197.42 383.25 289.61"/><polyline class="cls-13" points="401.81 267.27 381.22 287.51 383.51 289.85 404.11 269.61"/><polyline class="cls-13" points="357.12 222.01 336.53 242.24 338.82 244.58 359.42 224.35"/><polyline class="cls-13" points="335.86 200.32 315.27 220.56 317.57 222.9 338.16 202.66"/><polyline class="cls-13" points="379.67 244.67 359.07 264.9 361.37 267.24 381.96 247"/><rect class="cls-14" x="344.03" y="122.69" width="9.01" height="167.82" transform="translate(-44.86 303.56) rotate(-44.5)"/><rect class="cls-1" x="142.55" y="189.07" width="128.09" height="35.59" transform="translate(-85.76 206.67) rotate(-45)"/><polyline class="cls-13" points="160.75 251.62 251.35 161.01 249.04 158.7 158.43 249.31"/><polyline class="cls-13" points="151.01 241.86 241.62 151.25 239.3 148.94 148.69 239.54"/><polyline class="cls-13" points="171.35 258.08 150.75 237.49 148.44 239.81 169.03 260.4"/><polyline class="cls-13" points="215.84 213.39 195.24 192.8 192.92 195.12 213.52 215.71"/><polyline class="cls-13" points="237.15 192.13 216.56 171.54 214.24 173.86 234.83 194.45"/><polyline class="cls-13" points="193.57 235.94 172.98 215.34 170.66 217.66 191.25 238.25"/><rect class="cls-14" x="147.9" y="200.27" width="166.36" height="9.09" transform="translate(-77.14 223.39) rotate(-45)"/><rect class="cls-1" x="214.14" y="-5.89" width="35.28" height="129.22" transform="translate(25.31 179.31) rotate(-44.5)"/><polyline class="cls-13" points="187.01 12.1 277.62 104.29 279.96 102 189.35 9.8"/><polyline class="cls-13" points="196.78 2.53 287.38 94.73 289.72 92.43 199.11 0.24"/><polyline class="cls-13" points="180.55 22.57 201.15 2.34 198.85 0 178.26 20.23"/><polyline class="cls-13" points="225.24 67.84 245.84 47.6 243.54 45.27 222.95 65.5"/><polyline class="cls-13" points="246.5 89.52 267.1 69.29 264.8 66.95 244.21 87.19"/><polyline class="cls-13" points="202.7 45.18 223.29 24.95 221 22.61 200.4 42.84"/><rect class="cls-14" x="229.33" y="-0.67" width="9.01" height="167.82" transform="translate(8.71 187.78) rotate(-44.5)"/><path class="cls-1" d="M298.72,146.11a9.95,9.95,0,1,1-9.94-9.94A9.95,9.95,0,0,1,298.72,146.11Z"/><rect class="cls-11" x="216.13" y="352.9" width="146.18" height="9.13"/><path class="cls-15" d="M335.8,343.51a1.63,1.63,0,1,1,2.26.46A1.63,1.63,0,0,1,335.8,343.51Z"/><path class="cls-16" d="M336,343.37a1.38,1.38,0,1,1,1.92.39A1.37,1.37,0,0,1,336,343.37Z"/><path class="cls-17" d="M336.27,343.2a1.08,1.08,0,1,1,1.5.3A1.08,1.08,0,0,1,336.27,343.2Z"/><path class="cls-16" d="M337.48,342.37l-.32-.16h0l-.29.2,0,0,0,.35,0,0,.32.16h0l.3-.2v0l0-.36Zm-.3.5-.23-.12,0-.27.22.11h0l.21-.13v.26Z"/><polygon class="cls-16" points="337.32 342.92 337.4 343.05 337.5 343.06 337.51 342.97 337.43 342.85 337.34 342.83 337.32 342.92"/><polygon class="cls-16" points="336.84 342.23 336.92 342.35 337.01 342.37 337.04 342.27 336.95 342.15 336.86 342.13 336.84 342.23"/><path class="cls-18" d="M344.65,352.94l-12,.08-.06-9.3,12-.08a1.68,1.68,0,0,1,1.7,1.68l0,5.91A1.69,1.69,0,0,1,344.65,352.94Z"/><rect class="cls-19" x="338.13" y="341.11" width="9.82" height="4.83" transform="translate(-141.48 312.95) rotate(-41.43)"/><path class="cls-20" d="M344.39,343.54l.17-1,0-.09-.74-.63-.1,0-.91.33-.07.08-.17.95,0,.09.74.63.1,0,.91-.33Zm-1.52-.41.13-.7.68-.25-.12.65,0,.1.51.43-.68.24Z"/><path class="cls-20" d="M342.83,343.52l-.26.3,0,.27.27,0,.25-.3,0-.27Z"/><path class="cls-20" d="M344.28,341.76l-.26.3,0,.27.27,0,.25-.3,0-.27Z"/><polygon class="cls-20" points="347.38 342 347.34 341.96 342 346.68 339.73 344.11 345.03 339.43 347.33 342.04 347.38 342 347.34 341.96 347.38 342 347.42 341.96 345.04 339.27 339.57 344.1 341.99 346.83 347.46 342.01 347.42 341.96 347.38 342"/><rect class="cls-21" x="335.41" y="341.02" width="9.82" height="4.83" transform="translate(-140.44 394.78) rotate(-51.36)"/><polygon class="cls-19" points="344.51 341.21 344.47 341.17 339.89 346.9 337.13 344.7 341.68 339.01 344.48 341.25 344.51 341.21 344.47 341.17 344.51 341.21 344.55 341.16 341.66 338.86 336.97 344.72 339.9 347.06 344.59 341.2 344.55 341.16 344.51 341.21"/><path class="cls-19" d="M339.88,342.28l-.14,1,0,.09.76.6.1,0,.9-.36.06-.08.15-1,0-.09-.76-.6-.1,0-.9.36Zm1.53.35-.11.71-.67.27.1-.66,0-.09-.52-.41.67-.27Z"/><path class="cls-19" d="M341.44,342.24c.08-.1.16-.21.25-.31l0-.27-.27,0-.25.31,0,.27Z"/><path class="cls-19" d="M340.05,344.05l.24-.31,0-.26-.26,0-.25.31,0,.26Z"/><path class="cls-15" d="M336.76,343a1.63,1.63,0,1,1-2.3,0A1.63,1.63,0,0,1,336.76,343Z"/><path class="cls-16" d="M336.6,343.21a1.39,1.39,0,1,1-2,0A1.39,1.39,0,0,1,336.6,343.21Z"/><path class="cls-17" d="M336.36,343.44a1.07,1.07,0,1,1-1.52,0A1.07,1.07,0,0,1,336.36,343.44Z"/><path class="cls-16" d="M335.35,344.5l.35.09h0l.25-.26v0l-.09-.35,0,0-.34-.09h0l-.25.25v0l.09.34Zm.19-.55.26.07.07.25-.24-.06h0l-.18.18-.07-.26Z"/><polygon class="cls-16" points="335.4 343.92 335.3 343.82 335.2 343.82 335.2 343.92 335.3 344.02 335.4 344.02 335.4 343.92"/><polygon class="cls-16" points="336.01 344.5 335.9 344.4 335.81 344.4 335.81 344.5 335.91 344.6 336.01 344.6 336.01 344.5"/><path class="cls-1" d="M343.79,352.94l-11.12.08-.05-8.34,11.11-.08a1.69,1.69,0,0,1,1.7,1.68l0,5A1.69,1.69,0,0,1,343.79,352.94Z"/><path class="cls-22" d="M342.93,352.94l-10.26.07-.05-7.71,10.26-.07a1.68,1.68,0,0,1,1.7,1.68l0,4.33A1.68,1.68,0,0,1,342.93,352.94Z"/><rect class="cls-18" x="342.11" y="348.01" width="4.07" height="1.94" transform="translate(-2.34 2.32) rotate(-0.38)"/><path class="cls-17" d="M343.81,349a.61.61,0,1,1-1.21,0,.61.61,0,1,1,1.21,0Z"/><rect class="cls-18" x="332.38" y="343.7" width="1.24" height="9.3" transform="translate(-2.46 2.37) rotate(-0.41)"/><path class="cls-23" d="M189,339.76V310.22c0-1.36,0-2.73,0-4.09v-.06a1.42,1.42,0,0,0-1.39-1.4,1.43,1.43,0,0,0-1.4,1.4v29.54c0,1.37,0,2.73,0,4.1v.05a1.4,1.4,0,1,0,2.79,0Z"/><path class="cls-24" d="M184.32,328.76a6.16,6.16,0,0,0-2.09-5,10.92,10.92,0,0,0-3.28-2,18.62,18.62,0,0,0-12.14-1.05v0a8.47,8.47,0,0,1,3.74,2.14,17.29,17.29,0,0,1,2.84,4.24,15.1,15.1,0,0,0,2.93,4.17,5.36,5.36,0,0,0,4.7,1.47A4.62,4.62,0,0,0,184.32,328.76Z"/><path class="cls-24" d="M190.86,324.05a6.19,6.19,0,0,1,.87-5.32,11.08,11.08,0,0,1,2.75-2.67A18.57,18.57,0,0,1,206,312.22v0a8.44,8.44,0,0,0-3.14,2.94,17.47,17.47,0,0,0-1.78,4.79,15,15,0,0,1-1.88,4.74,5.36,5.36,0,0,1-4.23,2.52A4.62,4.62,0,0,1,190.86,324.05Z"/><path class="cls-23" d="M188.07,329.65a7.62,7.62,0,0,0,2.88-.93,10.14,10.14,0,0,0,2.37-1.81,16.92,16.92,0,0,0,2-2.53c.59-.89,1.12-1.82,1.65-2.75a8.54,8.54,0,0,0,1.22-3c0-.16,0-.32.05-.48a.42.42,0,0,0-.84,0v.31c0,.12,0,.25-.08.37a3.86,3.86,0,0,1-.23.73l0,.09,0,0v0l-.08.19c-.05.12-.11.23-.17.35s-.24.46-.37.69c-.51.91-1,1.81-1.58,2.69-.28.44-.58.87-.89,1.29l-.12.16,0,0h0l0,0-.24.3L193,326a10.68,10.68,0,0,1-1,1l-.28.23,0,0,0,0-.07.05-.15.11c-.19.14-.39.27-.59.39s-.41.24-.62.35l-.32.15-.07,0,0,0,0,0-.17.07a6.94,6.94,0,0,1-1.35.38l-.16,0h0l-.09,0a.41.41,0,0,0-.3.12.4.4,0,0,0-.12.29C187.66,329.44,187.83,329.68,188.07,329.65Z"/><path class="cls-23" d="M187.84,336.77a3.58,3.58,0,0,0-.42-1.28,4.67,4.67,0,0,0-.78-1,9.26,9.26,0,0,0-2.18-1.49c-.4-.22-.79-.43-1.17-.67-.19-.11-.38-.24-.56-.37l-.08-.05h0l-.11-.09-.25-.23a5.93,5.93,0,0,1-.44-.43l-.2-.23-.09-.11-.05-.07h0a6,6,0,0,1-.37-.51c-.11-.18-.23-.36-.33-.54a24.07,24.07,0,0,1-1.25-2.55.4.4,0,0,0-.25-.19.42.42,0,0,0-.33,0,.43.43,0,0,0-.15.57,14.26,14.26,0,0,0,2.59,4.34,8.66,8.66,0,0,0,2.17,1.57c.4.22.8.43,1.19.66.19.11.37.23.55.35l.23.16h0l0,0,.15.12c.16.14.32.28.47.44l.23.27,0,0,.06.08.09.13c.06.09.11.18.16.27l.09.17,0,.05v0a1.42,1.42,0,0,1,.1.29l0,.16v.08s0,.15,0,0a.45.45,0,0,0,.12.29.41.41,0,0,0,.3.12C187.62,337.18,187.87,337,187.84,336.77Z"/><path class="cls-15" d="M197.85,304a10.52,10.52,0,1,1-10.52-10.52A10.52,10.52,0,0,1,197.85,304Z"/><path class="cls-16" d="M196.29,304a8.93,8.93,0,1,1-8.93-8.93A8.93,8.93,0,0,1,196.29,304Z"/><path class="cls-17" d="M194.19,304a6.95,6.95,0,1,1-6.95-7A6.95,6.95,0,0,1,194.19,304Z"/><path class="cls-16" d="M184.74,304.11l1.16,2,.2.11h2.32l.2-.11,1.16-2v-.23l-1.16-2-.2-.12H186.1l-.2.12-1.16,2Zm3.38-1.6L189,304l-.86,1.49-.79-1.37-.21-.12h-1.58l.86-1.48Z"/><path class="cls-16" d="M187.6,301.73v-1a.46.46,0,0,0-.45-.45.45.45,0,0,0-.45.45v1a.45.45,0,1,0,.9,0Z"/><path class="cls-16" d="M187.7,307.18v-.95a.46.46,0,0,0-.91,0v.95a.45.45,0,0,0,.45.45A.46.46,0,0,0,187.7,307.18Z"/><polygon class="cls-18" points="177.81 343.6 196.36 343.6 193.9 361.06 180.57 361.06 177.81 343.6"/><polygon class="cls-14" points="199.44 344 199.45 344 199.44 344 199.44 337.45 174.61 337.45 174.54 337.43 174.54 337.45 174.53 337.45 174.54 337.45 174.54 344 199.37 344 199.44 344.02 199.44 344"/><path class="cls-25" d="M385.11,357.3c-.18-1.81-1-3.51-1.2-5.32-.14-1.07-.13-2.29-.89-3.06a2,2,0,0,0-2.58-.54c-.94.75-3.57,6.07-3.93,8.75a4.8,4.8,0,0,0,.46,3.45c.86,1.23,2.55,1.46,4,1.5a5.27,5.27,0,0,0,1.9-.21C384.62,361.24,385.29,359.12,385.11,357.3Z"/><path class="cls-26" d="M392.29,347.65c0,4.09-21.76,4.09-21.76,0s4.87-7.4,10.88-7.4S392.29,343.57,392.29,347.65Z"/><path class="cls-1" d="M379.77,342.67a1,1,0,1,1-1-1A1,1,0,0,1,379.77,342.67Z"/><circle class="cls-1" cx="388.4" cy="346.01" r="1.49"/><path class="cls-1" d="M385.55,345.58a1.13,1.13,0,1,1-1.12-1.13A1.12,1.12,0,0,1,385.55,345.58Z"/><path class="cls-1" d="M381.5,346.47a1.68,1.68,0,1,1-1.67-1.68A1.67,1.67,0,0,1,381.5,346.47Z"/><path class="cls-1" d="M374.7,346.53a1,1,0,1,1-1-1A1,1,0,0,1,374.7,346.53Z"/><path class="cls-1" d="M381.45,341.45a1.65,1.65,0,1,0,3-.93,16.77,16.77,0,0,0-2.5-.28A1.65,1.65,0,0,0,381.45,341.45Z"/><path class="cls-1" d="M385.44,348.63a1.26,1.26,0,0,0-1,2c.76-.05,1.5-.13,2.21-.23a1.34,1.34,0,0,0,.1-.49A1.27,1.27,0,0,0,385.44,348.63Z"/><path class="cls-1" d="M376.3,348.06a1.49,1.49,0,0,0-1.49,1.49,1.46,1.46,0,0,0,.14.63c.77.15,1.6.26,2.47.35a1.47,1.47,0,0,0,.37-1A1.49,1.49,0,0,0,376.3,348.06Z"/><path class="cls-1" d="M374.57,344a2.31,2.31,0,0,0,2.16-3.08,11.15,11.15,0,0,0-4,2.17A2.28,2.28,0,0,0,374.57,344Z"/><rect class="cls-11" x="216.13" y="352.9" width="146.18" height="9.13"/></g></g></svg>
